HIERARCHY
ROOT Hips
{
	OFFSET 0.00000 0.00000 0.00000
	CHANNELS 6 Xposition Yposition Zposition Zrotation Yrotation Xrotation 
	JOINT RightUpLegDummy
	{
		OFFSET 0 0 0
		CHANNELS 3 Zrotation Yrotation Xrotation
		JOINT RightUpLeg
		{
			OFFSET -3.52197 -3.41223 0.04002
			CHANNELS 3 Zrotation Yrotation Xrotation
			JOINT RightLeg
			{
				OFFSET -0.86543 -13.06008 -1.28655
				CHANNELS 3 Zrotation Yrotation Xrotation
				JOINT RightFoot
				{
					OFFSET -0.80713 -17.13930 -1.70707
					CHANNELS 3 Zrotation Yrotation Xrotation
					JOINT RightToes
					{
						OFFSET 0.00299 -1.73822 4.71938
						CHANNELS 3 Zrotation Yrotation Xrotation
						End Site
						{
							OFFSET 0.00480 -0.05414 3.03243
						}
					}
				}
			}
		}
	}
	JOINT SpineDummy
	{
		OFFSET 0 0 0
		CHANNELS 3 Zrotation Yrotation Xrotation
		JOINT Spine
		{
			OFFSET 0.00000 6.04702 0.41770
			CHANNELS 3 Zrotation Yrotation Xrotation
			JOINT Spine1
			{
				OFFSET -0.00002 10.39992 -1.69721
				CHANNELS 3 Zrotation Yrotation Xrotation
				JOINT HEadDummy
				{
					OFFSET 0 0 0
					CHANNELS 3 Zrotation Yrotation Xrotation
					JOINT Head
					{
						OFFSET -0.00001 3.43865 0.00443
						CHANNELS 3 Zrotation Yrotation Xrotation
						End Site
						{
							OFFSET -0.11418 5.02923 0.98969
						}
					}
				}
				JOINT LeftShoulder1Dummy
				{
					OFFSET 0 0 0
					CHANNELS 3 Zrotation Yrotation Xrotation
					JOINT LeftShoulder1
					{
						OFFSET 1.21361 -0.14262 -0.08662
						CHANNELS 3 Zrotation Yrotation Xrotation
						JOINT LeftArm
						{
							OFFSET 4.40875 -0.00132 0.12681
							CHANNELS 3 Zrotation Yrotation Xrotation
							JOINT LeftForeArm
							{
								OFFSET 8.94813 -0.09821 0.13217
								CHANNELS 3 Zrotation Yrotation Xrotation
								JOINT LeftHand
								{
									OFFSET 9.82063 -0.16591 0.14506
									CHANNELS 3 Zrotation Yrotation Xrotation
									End Site
									{
										OFFSET 7.19303 -0.20851 0.19067
									}
								}
							}
						}
					}
				}
				JOINT RightShoulderDummy
				{
					OFFSET 0 0 0
					CHANNELS 3 Zrotation Yrotation Xrotation
					JOINT RightShoulder
					{
						OFFSET -1.26534 -0.14262 -0.08661
						CHANNELS 3 Zrotation Yrotation Xrotation
						JOINT RightArm
						{
							OFFSET -4.30809 -0.00133 0.12683
							CHANNELS 3 Zrotation Yrotation Xrotation
							JOINT RightForeArm
							{
								OFFSET -8.99705 -0.09841 0.13211
								CHANNELS 3 Zrotation Yrotation Xrotation
								JOINT RightHand
								{
									OFFSET -9.82077 -0.16576 0.14421
									CHANNELS 3 Zrotation Yrotation Xrotation
									End Site
									{
										OFFSET -7.19310 -0.20866 0.18995
									}
								}
							}
						}
					}
				}
			}
		}
	}
	JOINT LeftUpLegDummy
	{
		OFFSET 0 0 0
		CHANNELS 3 Zrotation Yrotation Xrotation
		JOINT LeftUpLeg
		{
			OFFSET 3.52197 -3.41223 0.04002
			CHANNELS 3 Zrotation Yrotation Xrotation
			JOINT LeftLeg
			{
				OFFSET 0.94774 -13.07381 -1.28759
				CHANNELS 3 Zrotation Yrotation Xrotation
				JOINT LeftFoot
				{
					OFFSET 0.72832 -17.13147 -1.70602
					CHANNELS 3 Zrotation Yrotation Xrotation
					JOINT LeftToes
					{
						OFFSET -0.01574 -1.73820 4.71935
						CHANNELS 3 Zrotation Yrotation Xrotation
						End Site
						{
							OFFSET 0.03150 -0.01866 3.03230
						}
					}
				}
			}
		}
	}
}
MOTION
Frames: 7
Frame Time: 0.033333
-16.6273 38.4180 -39.3437 -0.1372 -64.6085 1.3018 0.0000 0.0000 0.0000 -16.3959 -11.7528 -5.9772 -10.9855 -23.8678 19.5572 20.0701 -9.5760 31.7499 0.0000 0.0000 0.0000 0.0000 0.0000 0.0000 -8.2727 -5.5363 -1.3231 5.7799 -4.5648 -13.8985 -0.0000 0.0000 0.0000 3.9955 -36.0219 4.6422 -0.0000 0.0000 0.0000 4.3138 2.6412 0.0380 73.1892 -46.2739 -126.3485 -0.1169 -31.4558 -29.2117 -6.2750 -0.3631 0.1055 -0.0000 0.0000 0.0000 -3.5886 -4.6185 -0.0593 -50.5080 15.5757 -101.9055 -0.0322 26.3807 -32.4949 -9.5096 -3.7401 0.2349 0.0000 0.0000 0.0000 -2.8242 7.0836 -26.6436 -6.2957 -3.3814 29.7967 6.1174 -0.7595 12.4351 -0.0000 -0.0000 -0.0000
-16.8344 38.1260 -39.2886 3.3934 -60.2993 -0.9575 0.0000 0.0000 0.0000 -18.2315 -13.9076 -4.2273 -11.0480 -23.9700 20.6060 21.4185 -8.6856 26.1992 0.0000 0.0000 0.0000 0.0000 0.0000 0.0000 -9.4872 -6.0119 -4.2334 1.5390 -4.8166 -9.7312 -0.0000 0.0000 0.0000 2.5408 -37.3566 6.6787 -0.0000 0.0000 0.0000 3.3277 2.5027 0.0579 75.3179 -46.6835 -129.1685 -0.0661 -31.7262 -27.2288 -6.3488 -1.3592 0.1493 -0.0000 0.0000 0.0000 -2.5100 -4.5876 -0.0679 -50.4837 16.0892 -103.3082 0.0131 27.0508 -31.7304 -9.2670 -3.5597 0.2127 0.0000 0.0000 0.0000 -5.5182 7.3946 -29.4959 -7.3492 -4.1768 33.0118 7.0191 -0.9148 11.7292 -0.0000 -0.0000 -0.0000
-17.1383 38.0798 -39.1652 4.1171 -54.9681 -3.3286 0.0000 0.0000 0.0000 -17.9041 -13.3945 1.1499 -12.2928 -28.6475 19.4131 15.7649 -6.5534 25.5365 0.0000 0.0000 0.0000 0.0000 0.0000 0.0000 -9.8263 -6.6483 -3.3678 2.3909 -5.4480 -9.8384 -0.0000 0.0000 0.0000 -1.6382 -37.0147 11.1925 -0.0000 0.0000 0.0000 1.2217 1.5337 0.1447 74.7639 -47.4731 -125.2182 -0.0476 -32.1589 -26.6062 -8.4677 -2.7079 0.2781 -0.0000 0.0000 0.0000 -2.2784 -4.5210 -0.0663 -49.9157 17.5445 -100.9534 0.1773 27.5902 -32.7550 -9.0011 -3.9121 0.2420 0.0000 0.0000 0.0000 -6.8446 7.9330 -27.6523 -9.6779 -8.8201 34.3244 7.6401 -1.0365 11.5579 -0.0000 -0.0000 -0.0000
-17.3143 38.1242 -39.1042 3.8740 -52.2410 -4.3017 0.0000 0.0000 0.0000 -16.2290 -12.6895 3.1489 -14.6788 -33.1391 20.2107 9.4045 -4.3137 25.0674 0.0000 0.0000 0.0000 0.0000 0.0000 0.0000 -9.5540 -6.6634 -2.7251 2.5868 -5.4810 -11.9570 -0.0000 0.0000 0.0000 -3.9292 -36.9391 13.6539 -0.0000 0.0000 0.0000 0.4356 1.1345 0.1908 74.1916 -47.6928 -121.1630 -0.0525 -32.1050 -26.7853 -9.4900 -3.0612 0.3419 -0.0000 0.0000 0.0000 -1.1693 -4.8686 -0.1013 -51.1002 18.5465 -96.3753 0.2827 26.2159 -35.2304 -8.6336 -3.9938 0.2426 0.0000 0.0000 0.0000 -6.7645 4.7131 -25.6556 -8.8045 -9.0171 33.8306 5.8865 -0.6781 11.0758 -0.0000 -0.0000 -0.0000
-17.4243 38.1935 -39.0102 3.7165 -51.8463 -3.9092 0.0000 0.0000 0.0000 -15.3063 -12.6031 2.8488 -15.8994 -35.9029 20.4358 6.4372 -3.4292 25.8206 0.0000 0.0000 0.0000 0.0000 0.0000 0.0000 -8.5083 -6.4846 -4.0040 0.9269 -5.2455 -12.0920 -0.0000 0.0000 0.0000 -3.6884 -37.1992 13.6419 -0.0000 0.0000 0.0000 0.9043 1.2316 0.1741 73.8765 -47.1453 -119.3876 -0.0648 -32.3616 -27.3505 -8.9388 -3.1625 0.3257 -0.0000 0.0000 0.0000 -1.0029 -4.9010 -0.1062 -50.7705 18.5869 -92.6985 0.4389 25.4130 -35.8866 -9.0809 -4.1543 0.2670 0.0000 0.0000 0.0000 -6.3360 2.6420 -25.1613 -8.4107 -8.8404 33.0650 4.1368 -0.3397 10.7277 -0.0000 -0.0000 -0.0000
-17.4949 38.2219 -38.9433 4.2757 -52.9109 -3.7489 0.0000 0.0000 0.0000 -15.5290 -13.1945 1.3135 -16.6885 -36.4983 21.3945 5.8745 -3.2312 25.7606 0.0000 0.0000 0.0000 0.0000 0.0000 0.0000 -7.8309 -6.1293 -5.4289 -0.1015 -4.8431 -10.5142 -0.0000 0.0000 0.0000 -3.4949 -35.5580 12.7010 -0.0000 0.0000 0.0000 1.6395 1.7940 0.1195 73.2696 -46.0441 -119.4328 -0.0705 -32.5483 -27.6227 -8.5725 -3.0949 0.3061 -0.0000 0.0000 0.0000 -1.5957 -4.6581 -0.0815 -49.8308 18.8896 -93.2509 0.4239 24.9729 -36.5222 -9.0935 -4.0361 0.2560 0.0000 0.0000 0.0000 -6.3382 2.2860 -25.2148 -8.1357 -8.9733 32.4517 2.2056 0.0262 10.3601 -0.0000 -0.0000 -0.0000
-17.5290 38.2672 -38.9316 4.7183 -54.9314 -4.1776 0.0000 0.0000 0.0000 -15.8371 -13.7350 0.4229 -16.4764 -36.0927 21.3464 5.1772 -2.9825 25.6321 0.0000 0.0000 0.0000 0.0000 0.0000 0.0000 -7.1761 -5.6215 -5.4922 -1.6323 -4.4010 -9.7171 -0.0000 0.0000 0.0000 -2.5375 -34.0112 11.3987 -0.0000 0.0000 0.0000 1.8431 3.3817 0.0090 74.5944 -45.4134 -122.2408 -0.0469 -32.6681 -26.7126 -8.6998 -3.0498 0.3086 -0.0000 0.0000 0.0000 -1.2250 -4.4080 -0.0664 -49.8100 19.3762 -95.0348 0.3416 25.3161 -36.6241 -8.9825 -3.7716 0.2282 0.0000 0.0000 0.0000 -6.1086 2.5381 -24.7460 -7.9543 -8.0159 31.8057 4.0810 -0.3251 10.9416 -0.0000 -0.0000 -0.0000
